<svg width="32" height="32" viewBox="0 0 32 32" fill="none" xmlns="http://www.w3.org/2000/svg">
<rect width="32" height="32" rx="6" fill="white"/>
<path d="M19.1201 17.0191L15.2342 18.7492L14.3123 19.1597L9.70309 21.2118C9.62421 21.2469 9.56975 21.3198 9.55737 21.4036L9.55469 21.4402V26.7498C9.55475 26.9307 9.74092 27.0515 9.90617 26.978L19.3235 22.7851L19.3557 22.768C19.4273 22.7227 19.4719 22.6433 19.4719 22.5569V21.4569V20.636V17.2473C19.4718 17.0664 19.2854 16.9455 19.1201 17.0191Z" fill="black"/>
<path fill-rule="evenodd" clip-rule="evenodd" d="M14.3124 18.3389L18.8153 16.334C19.4764 16.0398 20.2217 16.5237 20.2217 17.2474V20.97L21.4036 21.4962C21.5688 21.5697 21.755 21.4488 21.755 21.268V15.9584C21.755 15.8597 21.6971 15.7701 21.6069 15.7299L16.9618 13.6619L16.0399 13.2514L11.8042 11.3657L11.0543 11.0318L9.90617 10.5206C9.74091 10.4471 9.55474 10.568 9.55469 10.7489V16.0584C9.55469 16.1572 9.61291 16.2465 9.70309 16.2867L14.3124 18.3389ZM11.0543 14.7525L11.0565 14.8197C11.058 14.8418 11.0601 14.8637 11.0629 14.8853C11.0573 14.842 11.0543 14.7978 11.0543 14.7525Z" fill="black"/>
<path fill-rule="evenodd" clip-rule="evenodd" d="M16.9617 12.841L11.8042 10.5448V9.44301L11.8069 9.4064C11.8193 9.32262 11.8737 9.24967 11.9526 9.21455L21.3697 5.0219C21.5349 4.9483 21.7213 5.06922 21.7214 5.25012V10.5597C21.7214 10.6461 21.6768 10.7255 21.6052 10.7708L21.573 10.7879L16.9617 12.841Z" fill="black"/>
</svg>
